%TF.GenerationSoftware,KiCad,Pcbnew,7.0.8-7.0.8~ubuntu22.04.1*%
%TF.CreationDate,2023-10-30T23:12:38+03:00*%
%TF.ProjectId,Keeb,4b656562-2e6b-4696-9361-645f70636258,rev?*%
%TF.SameCoordinates,Original*%
%TF.FileFunction,Copper,L1,Top*%
%TF.FilePolarity,Positive*%
%FSLAX46Y46*%
G04 Gerber Fmt 4.6, Leading zero omitted, Abs format (unit mm)*
G04 Created by KiCad (PCBNEW 7.0.8-7.0.8~ubuntu22.04.1) date 2023-10-30 23:12:38*
%MOMM*%
%LPD*%
G01*
G04 APERTURE LIST*
G04 Aperture macros list*
%AMHorizOval*
0 Thick line with rounded ends*
0 $1 width*
0 $2 $3 position (X,Y) of the first rounded end (center of the circle)*
0 $4 $5 position (X,Y) of the second rounded end (center of the circle)*
0 Add line between two ends*
20,1,$1,$2,$3,$4,$5,0*
0 Add two circle primitives to create the rounded ends*
1,1,$1,$2,$3*
1,1,$1,$4,$5*%
%AMRotRect*
0 Rectangle, with rotation*
0 The origin of the aperture is its center*
0 $1 length*
0 $2 width*
0 $3 Rotation angle, in degrees counterclockwise*
0 Add horizontal line*
21,1,$1,$2,0,0,$3*%
G04 Aperture macros list end*
%TA.AperFunction,ComponentPad*%
%ADD10C,2.500000*%
%TD*%
%TA.AperFunction,ComponentPad*%
%ADD11O,2.300000X1.500000*%
%TD*%
%TA.AperFunction,ComponentPad*%
%ADD12HorizOval,1.700000X0.000000X0.000000X0.000000X0.000000X0*%
%TD*%
%TA.AperFunction,ComponentPad*%
%ADD13RotRect,1.700000X1.700000X60.000000*%
%TD*%
%TA.AperFunction,Conductor*%
%ADD14C,0.250000*%
%TD*%
G04 APERTURE END LIST*
D10*
%TO.P,SW2,1*%
%TO.N,22*%
X184515000Y-72127944D03*
%TO.P,SW2,2*%
%TO.N,GND*%
X190865000Y-69587944D03*
%TD*%
%TO.P,SW34,1*%
%TO.N,GND*%
X119685016Y-113277806D03*
%TO.P,SW34,2*%
%TO.N,7*%
X126454278Y-114253102D03*
%TD*%
%TO.P,SW29,1*%
%TO.N,14*%
X127365000Y-91177944D03*
%TO.P,SW29,2*%
%TO.N,GND*%
X133715000Y-88637944D03*
%TD*%
%TO.P,SW26,1*%
%TO.N,15*%
X146415000Y-77077944D03*
%TO.P,SW26,2*%
%TO.N,GND*%
X152765000Y-74537944D03*
%TD*%
%TO.P,SW27,1*%
%TO.N,12*%
X127365000Y-53077944D03*
%TO.P,SW27,2*%
%TO.N,GND*%
X133715000Y-50537944D03*
%TD*%
%TO.P,SW22,1*%
%TO.N,19*%
X165465000Y-65077944D03*
%TO.P,SW22,2*%
%TO.N,GND*%
X171815000Y-62537944D03*
%TD*%
%TO.P,SW33,1*%
%TO.N,GND*%
X108315000Y-91177944D03*
%TO.P,SW33,2*%
%TO.N,11*%
X114665000Y-88637944D03*
%TD*%
%TO.P,SW28,1*%
%TO.N,13*%
X127365000Y-72127944D03*
%TO.P,SW28,2*%
%TO.N,GND*%
X133715000Y-69587944D03*
%TD*%
%TO.P,SW24,1*%
%TO.N,GND*%
X146415000Y-38977944D03*
%TO.P,SW24,2*%
%TO.N,17*%
X152765000Y-36437944D03*
%TD*%
%TO.P,SW23,1*%
%TO.N,20*%
X165465000Y-84127944D03*
%TO.P,SW23,2*%
%TO.N,GND*%
X171815000Y-81587944D03*
%TD*%
%TO.P,SW31,1*%
%TO.N,GND*%
X108315000Y-53077944D03*
%TO.P,SW31,2*%
%TO.N,9*%
X114665000Y-50537944D03*
%TD*%
%TO.P,SW32,1*%
%TO.N,GND*%
X108315000Y-72127944D03*
%TO.P,SW32,2*%
%TO.N,10*%
X114665000Y-69587944D03*
%TD*%
%TO.P,SW12,1*%
%TO.N,26*%
X184515000Y-91177944D03*
%TO.P,SW12,2*%
%TO.N,GND*%
X190865000Y-88637944D03*
%TD*%
D11*
%TO.P,J2,1,A*%
%TO.N,0*%
X135880000Y-39280000D03*
%TO.P,J2,2,B*%
%TO.N,GND*%
X127380000Y-34980000D03*
%TO.P,J2,3,C*%
%TO.N,3v3*%
X130380000Y-34980000D03*
%TO.P,J2,4,D*%
%TO.N,VSYS*%
X134380000Y-34980000D03*
%TD*%
D10*
%TO.P,SW30,1*%
%TO.N,GND*%
X136182800Y-122802806D03*
%TO.P,SW30,2*%
%TO.N,6*%
X142952062Y-123778102D03*
%TD*%
%TO.P,SW25,1*%
%TO.N,GND*%
X146415000Y-58027944D03*
%TO.P,SW25,2*%
%TO.N,16*%
X152765000Y-55487944D03*
%TD*%
%TO.P,SW1,1*%
%TO.N,21*%
X184515000Y-53077944D03*
%TO.P,SW1,2*%
%TO.N,GND*%
X190865000Y-50537944D03*
%TD*%
%TO.P,SW21,1*%
%TO.N,18*%
X165465000Y-46027944D03*
%TO.P,SW21,2*%
%TO.N,GND*%
X171815000Y-43487944D03*
%TD*%
D11*
%TO.P,J1,1,A*%
%TO.N,3v3*%
X135875000Y-36917944D03*
%TO.P,J1,2,B*%
%TO.N,GND*%
X127375000Y-41217944D03*
%TO.P,J1,3,C*%
%TO.N,1*%
X130375000Y-41217944D03*
%TO.P,J1,4,D*%
%TO.N,0*%
X134375000Y-41217944D03*
%TD*%
D10*
%TO.P,SW3,1*%
%TO.N,GND*%
X192135000Y-53077944D03*
%TO.P,SW3,2*%
%TO.N,21*%
X185785000Y-50537944D03*
%TD*%
%TO.P,SW4,1*%
%TO.N,GND*%
X192135000Y-72127944D03*
%TO.P,SW4,2*%
%TO.N,22*%
X185785000Y-69587944D03*
%TD*%
%TO.P,SW5,1*%
%TO.N,GND*%
X192135000Y-91177944D03*
%TO.P,SW5,2*%
%TO.N,26*%
X185785000Y-88637944D03*
%TD*%
%TO.P,SW6,1*%
%TO.N,GND*%
X173085000Y-46027944D03*
%TO.P,SW6,2*%
%TO.N,18*%
X166735000Y-43487944D03*
%TD*%
%TO.P,SW7,1*%
%TO.N,GND*%
X173085000Y-65077944D03*
%TO.P,SW7,2*%
%TO.N,19*%
X166735000Y-62537944D03*
%TD*%
%TO.P,SW8,1*%
%TO.N,GND*%
X173085000Y-84127944D03*
%TO.P,SW8,2*%
%TO.N,20*%
X166735000Y-81587944D03*
%TD*%
%TO.P,SW9,1*%
%TO.N,17*%
X154035000Y-38977944D03*
%TO.P,SW9,2*%
%TO.N,GND*%
X147685000Y-36437944D03*
%TD*%
%TO.P,SW10,1*%
%TO.N,16*%
X154035000Y-58027944D03*
%TO.P,SW10,2*%
%TO.N,GND*%
X147685000Y-55487944D03*
%TD*%
%TO.P,SW11,1*%
%TO.N,GND*%
X154035000Y-77077944D03*
%TO.P,SW11,2*%
%TO.N,15*%
X147685000Y-74537944D03*
%TD*%
%TO.P,SW13,1*%
%TO.N,GND*%
X134985000Y-53077944D03*
%TO.P,SW13,2*%
%TO.N,12*%
X128635000Y-50537944D03*
%TD*%
%TO.P,SW14,1*%
%TO.N,GND*%
X134985000Y-72127944D03*
%TO.P,SW14,2*%
%TO.N,13*%
X128635000Y-69587944D03*
%TD*%
%TO.P,SW15,1*%
%TO.N,GND*%
X134985000Y-91177944D03*
%TO.P,SW15,2*%
%TO.N,14*%
X128635000Y-88637944D03*
%TD*%
%TO.P,SW16,1*%
%TO.N,6*%
X142781914Y-126612806D03*
%TO.P,SW16,2*%
%TO.N,GND*%
X138552652Y-121238102D03*
%TD*%
%TO.P,SW17,1*%
%TO.N,9*%
X115935000Y-53077944D03*
%TO.P,SW17,2*%
%TO.N,GND*%
X109585000Y-50537944D03*
%TD*%
%TO.P,SW18,1*%
%TO.N,10*%
X115935000Y-72127944D03*
%TO.P,SW18,2*%
%TO.N,GND*%
X109585000Y-69587944D03*
%TD*%
%TO.P,SW19,1*%
%TO.N,11*%
X115935000Y-91177944D03*
%TO.P,SW19,2*%
%TO.N,GND*%
X109585000Y-88637944D03*
%TD*%
%TO.P,SW20,1*%
%TO.N,7*%
X126284130Y-117087806D03*
%TO.P,SW20,2*%
%TO.N,GND*%
X122054868Y-111713102D03*
%TD*%
D12*
%TO.P,U1,1,GPIO0*%
%TO.N,0*%
X180742193Y-130263966D03*
%TO.P,U1,2,GPIO1*%
%TO.N,1*%
X178542488Y-128993966D03*
D13*
%TO.P,U1,3,GND*%
%TO.N,GND*%
X176342784Y-127723966D03*
D12*
%TO.P,U1,4,GPIO2*%
%TO.N,2*%
X174143079Y-126453966D03*
%TO.P,U1,5,GPIO3*%
%TO.N,3*%
X171943375Y-125183966D03*
%TO.P,U1,6,GPIO4*%
%TO.N,4*%
X169743670Y-123913966D03*
%TO.P,U1,7,GPIO5*%
%TO.N,5*%
X167543966Y-122643966D03*
D13*
%TO.P,U1,8,GND*%
%TO.N,unconnected-(U1-GND-Pad8)*%
X165344261Y-121373966D03*
D12*
%TO.P,U1,9,GPIO6*%
%TO.N,6*%
X163144557Y-120103966D03*
%TO.P,U1,10,GPIO7*%
%TO.N,7*%
X160944852Y-118833966D03*
%TO.P,U1,11,GPIO8*%
%TO.N,8*%
X158745148Y-117563966D03*
%TO.P,U1,12,GPIO9*%
%TO.N,9*%
X156545443Y-116293966D03*
D13*
%TO.P,U1,13,GND*%
%TO.N,GND*%
X154345739Y-115023966D03*
D12*
%TO.P,U1,14,GPIO10*%
%TO.N,10*%
X152146034Y-113753966D03*
%TO.P,U1,15,GPIO11*%
%TO.N,11*%
X149946330Y-112483966D03*
%TO.P,U1,16,GPIO12*%
%TO.N,12*%
X147746625Y-111213966D03*
%TO.P,U1,17,GPIO13*%
%TO.N,13*%
X145546921Y-109943966D03*
D13*
%TO.P,U1,18,GND*%
%TO.N,GND*%
X143347216Y-108673966D03*
D12*
%TO.P,U1,19,GPIO14*%
%TO.N,14*%
X141147512Y-107403966D03*
%TO.P,U1,20,GPIO15*%
%TO.N,15*%
X138947807Y-106133966D03*
%TO.P,U1,21,GPIO16*%
%TO.N,16*%
X147837807Y-90736034D03*
%TO.P,U1,22,GPIO17*%
%TO.N,17*%
X150037512Y-92006034D03*
D13*
%TO.P,U1,23,GND*%
%TO.N,GND*%
X152237216Y-93276034D03*
D12*
%TO.P,U1,24,GPIO18*%
%TO.N,18*%
X154436921Y-94546034D03*
%TO.P,U1,25,GPIO19*%
%TO.N,19*%
X156636625Y-95816034D03*
%TO.P,U1,26,GPIO20*%
%TO.N,20*%
X158836330Y-97086034D03*
%TO.P,U1,27,GPIO21*%
%TO.N,21*%
X161036034Y-98356034D03*
D13*
%TO.P,U1,28,GND*%
%TO.N,GND*%
X163235739Y-99626034D03*
D12*
%TO.P,U1,29,GPIO22*%
%TO.N,22*%
X165435443Y-100896034D03*
%TO.P,U1,30,RUN*%
%TO.N,unconnected-(U1-RUN-Pad30)*%
X167635148Y-102166034D03*
%TO.P,U1,31,GPIO26_ADC0*%
%TO.N,26*%
X169834852Y-103436034D03*
%TO.P,U1,32,GPIO27_ADC1*%
%TO.N,27*%
X172034557Y-104706034D03*
D13*
%TO.P,U1,33,AGND*%
%TO.N,unconnected-(U1-AGND-Pad33)*%
X174234261Y-105976034D03*
D12*
%TO.P,U1,34,GPIO28_ADC2*%
%TO.N,28*%
X176433966Y-107246034D03*
%TO.P,U1,35,ADC_VREF*%
%TO.N,unconnected-(U1-ADC_VREF-Pad35)*%
X178633670Y-108516034D03*
%TO.P,U1,36,3V3*%
%TO.N,unconnected-(U1-3V3-Pad36)*%
X180833375Y-109786034D03*
%TO.P,U1,37,3V3_EN*%
%TO.N,unconnected-(U1-3V3_EN-Pad37)*%
X183033079Y-111056034D03*
D13*
%TO.P,U1,38,GND*%
%TO.N,GND*%
X185232784Y-112326034D03*
D12*
%TO.P,U1,39,VSYS*%
%TO.N,VSYS*%
X187432488Y-113596034D03*
%TO.P,U1,40,VBUS*%
%TO.N,3v3*%
X189632193Y-114866034D03*
%TO.P,U1,41,SWCLK*%
%TO.N,unconnected-(U1-SWCLK-Pad41)*%
X142321993Y-100749705D03*
D13*
%TO.P,U1,42,GND*%
%TO.N,unconnected-(U1-GND-Pad42)*%
X143591993Y-98550000D03*
D12*
%TO.P,U1,43,SWDIO*%
%TO.N,unconnected-(U1-SWDIO-Pad43)*%
X144861993Y-96350295D03*
%TD*%
D14*
%TO.N,7*%
X126284130Y-117087806D02*
X132562948Y-123366624D01*
X138699573Y-124532511D02*
X141625965Y-121606119D01*
X132562948Y-123366624D02*
X132562948Y-124885278D01*
X132562948Y-124885278D02*
X133393302Y-125715632D01*
X133393302Y-125715632D02*
X136045479Y-125715632D01*
X136045479Y-125715632D02*
X137228600Y-124532511D01*
X137228600Y-124532511D02*
X138699573Y-124532511D01*
X141625965Y-121606119D02*
X158172699Y-121606119D01*
X158172699Y-121606119D02*
X160944852Y-118833966D01*
%TO.N,3v3*%
X174053604Y-40030000D02*
X163047056Y-40030000D01*
X175573604Y-41550000D02*
X174053604Y-40030000D01*
X193135965Y-51605965D02*
X193135965Y-48446119D01*
X189632193Y-106221411D02*
X195700000Y-100153604D01*
X189632193Y-114866034D02*
X189632193Y-106221411D01*
%TO.N,VSYS*%
X193585965Y-51165965D02*
X193585965Y-48259723D01*
%TO.N,3v3*%
X189976119Y-48446119D02*
X183080000Y-41550000D01*
%TO.N,VSYS*%
X193585965Y-48259723D02*
X193322361Y-47996119D01*
X135068637Y-34291363D02*
X134380000Y-34980000D01*
X190416119Y-47996119D02*
X183520000Y-41100000D01*
%TO.N,3v3*%
X183080000Y-41550000D02*
X175573604Y-41550000D01*
%TO.N,VSYS*%
X161837056Y-37800000D02*
X158328419Y-34291363D01*
X187432488Y-113596034D02*
X187432488Y-114902488D01*
%TO.N,3v3*%
X193135965Y-48446119D02*
X189976119Y-48446119D01*
X195700000Y-54170000D02*
X193135965Y-51605965D01*
%TO.N,VSYS*%
X172460000Y-37800000D02*
X161837056Y-37800000D01*
X183520000Y-41100000D02*
X175760000Y-41100000D01*
%TO.N,3v3*%
X137942944Y-34850000D02*
X135875000Y-36917944D01*
%TO.N,VSYS*%
X196290000Y-53870000D02*
X193585965Y-51165965D01*
X191160000Y-105970000D02*
X196290000Y-100840000D01*
X193322361Y-47996119D02*
X190416119Y-47996119D01*
X191160000Y-115160000D02*
X191160000Y-105970000D01*
X196290000Y-100840000D02*
X196290000Y-53870000D01*
X190160000Y-116160000D02*
X191160000Y-115160000D01*
%TO.N,3v3*%
X195700000Y-100153604D02*
X195700000Y-54170000D01*
%TO.N,VSYS*%
X158328419Y-34291363D02*
X135068637Y-34291363D01*
X175760000Y-41100000D02*
X172460000Y-37800000D01*
X188690000Y-116160000D02*
X190160000Y-116160000D01*
%TO.N,3v3*%
X163047056Y-40030000D02*
X157867056Y-34850000D01*
%TO.N,VSYS*%
X187432488Y-114902488D02*
X188690000Y-116160000D01*
%TO.N,3v3*%
X157867056Y-34850000D02*
X137942944Y-34850000D01*
%TO.N,GND*%
X127375000Y-41217944D02*
X128550000Y-40042944D01*
X128550000Y-40042944D02*
X133812789Y-40042944D01*
X133985965Y-38586119D02*
X134515965Y-38056119D01*
X133812789Y-40042944D02*
X133985965Y-39869768D01*
X133985965Y-39869768D02*
X133985965Y-38586119D01*
X134515965Y-38056119D02*
X143116825Y-38056119D01*
X143116825Y-38056119D02*
X144735000Y-36437944D01*
X144735000Y-36437944D02*
X147685000Y-36437944D01*
%TO.N,9*%
X109750000Y-92366396D02*
X111790000Y-90326396D01*
X115935000Y-55166701D02*
X115935000Y-53077944D01*
X111890000Y-59211701D02*
X115935000Y-55166701D01*
X109330000Y-75580000D02*
X109330000Y-74104187D01*
X111720000Y-97600000D02*
X109750000Y-95630000D01*
X111790000Y-90326396D02*
X111790000Y-78040000D01*
X115935000Y-53077944D02*
X115935000Y-51807944D01*
X115935000Y-51807944D02*
X114665000Y-50537944D01*
X155946875Y-116892534D02*
X133428776Y-116892534D01*
X109750000Y-95630000D02*
X109750000Y-92366396D01*
X133428776Y-116892534D02*
X114136242Y-97600000D01*
X111790000Y-78040000D02*
X109330000Y-75580000D01*
X109330000Y-74104187D02*
X111890000Y-71544187D01*
X111890000Y-71544187D02*
X111890000Y-59211701D01*
X114136242Y-97600000D02*
X111720000Y-97600000D01*
X156545443Y-116293966D02*
X155946875Y-116892534D01*
%TO.N,10*%
X112240000Y-90140000D02*
X112240000Y-78548097D01*
X115935000Y-72127944D02*
X115935000Y-70857944D01*
X115935000Y-74853097D02*
X115935000Y-72127944D01*
X114950000Y-92850000D02*
X112240000Y-90140000D01*
X114950000Y-93230711D02*
X114950000Y-92850000D01*
X112240000Y-78548097D02*
X115935000Y-74853097D01*
X115935000Y-70857944D02*
X114665000Y-69587944D01*
X152146034Y-113753966D02*
X135473255Y-113753966D01*
X135473255Y-113753966D02*
X114950000Y-93230711D01*
%TO.N,11*%
X116432767Y-91177944D02*
X115935000Y-91177944D01*
X137738789Y-112483966D02*
X116432767Y-91177944D01*
X115935000Y-91177944D02*
X115935000Y-89907944D01*
X115935000Y-89907944D02*
X114665000Y-88637944D01*
X149946330Y-112483966D02*
X137738789Y-112483966D01*
%TO.N,13*%
X124190000Y-71382944D02*
X126010000Y-69562944D01*
X127365000Y-72127944D02*
X127365000Y-70857944D01*
X145546921Y-109943966D02*
X144948353Y-110542534D01*
X127365000Y-70857944D02*
X128635000Y-69587944D01*
X128610000Y-69562944D02*
X128635000Y-69587944D01*
X139012534Y-110542534D02*
X124190000Y-95720000D01*
X126010000Y-69562944D02*
X128610000Y-69562944D01*
X124190000Y-95720000D02*
X124190000Y-71382944D01*
X144948353Y-110542534D02*
X139012534Y-110542534D01*
%TO.N,16*%
X147837807Y-90736034D02*
X156555000Y-82018841D01*
X154035000Y-58027944D02*
X154035000Y-56757944D01*
X154035000Y-56757944D02*
X152765000Y-55487944D01*
X154035000Y-61795000D02*
X154035000Y-58027944D01*
X156555000Y-82018841D02*
X156555000Y-64315000D01*
X156555000Y-64315000D02*
X154035000Y-61795000D01*
%TO.N,17*%
X157420000Y-84944486D02*
X157420000Y-47321701D01*
X154035000Y-38977944D02*
X152765000Y-37707944D01*
X152765000Y-37707944D02*
X152765000Y-36887944D01*
X150358452Y-92006034D02*
X157420000Y-84944486D01*
X154035000Y-43936701D02*
X154035000Y-38977944D01*
X150037512Y-92006034D02*
X150358452Y-92006034D01*
X157420000Y-47321701D02*
X154035000Y-43936701D01*
%TO.N,18*%
X154070000Y-93696053D02*
X159180000Y-88586053D01*
X164885000Y-43487944D02*
X166735000Y-43487944D01*
X154070000Y-94179113D02*
X154070000Y-93696053D01*
X159180000Y-88586053D02*
X159180000Y-49192944D01*
X154436921Y-94546034D02*
X154070000Y-94179113D01*
X159180000Y-49192944D02*
X164885000Y-43487944D01*
X165465000Y-46027944D02*
X165465000Y-44757944D01*
X165465000Y-44757944D02*
X166735000Y-43487944D01*
%TO.N,19*%
X165465000Y-63807944D02*
X166735000Y-62537944D01*
X156957565Y-95816034D02*
X160250000Y-92523599D01*
X160250000Y-92523599D02*
X160250000Y-67092944D01*
X165465000Y-65077944D02*
X165465000Y-63807944D01*
X164805000Y-62537944D02*
X166735000Y-62537944D01*
X160250000Y-67092944D02*
X164805000Y-62537944D01*
X156636625Y-95816034D02*
X156957565Y-95816034D01*
%TO.N,20*%
X158836330Y-97086034D02*
X158836330Y-96943670D01*
X165465000Y-82857944D02*
X166735000Y-81587944D01*
X165465000Y-84127944D02*
X165465000Y-82857944D01*
X161460000Y-94320000D02*
X161460000Y-81942944D01*
X161815000Y-81587944D02*
X166735000Y-81587944D01*
X161460000Y-81942944D02*
X161815000Y-81587944D01*
X158836330Y-96943670D02*
X161460000Y-94320000D01*
%TO.N,21*%
X176640000Y-86630000D02*
X176640000Y-57182944D01*
X184515000Y-53077944D02*
X184515000Y-51807944D01*
X176640000Y-57182944D02*
X183285000Y-50537944D01*
X184515000Y-51807944D02*
X185785000Y-50537944D01*
X161036034Y-98356034D02*
X171142068Y-88250000D01*
X183285000Y-50537944D02*
X185785000Y-50537944D01*
X171142068Y-88250000D02*
X175020000Y-88250000D01*
X175020000Y-88250000D02*
X176640000Y-86630000D01*
%TO.N,22*%
X184515000Y-72127944D02*
X184515000Y-70857944D01*
X184515000Y-70857944D02*
X185785000Y-69587944D01*
X165756383Y-100896034D02*
X165435443Y-100896034D01*
X184612056Y-69587944D02*
X179350000Y-74850000D01*
X179350000Y-87302417D02*
X165756383Y-100896034D01*
X185785000Y-69587944D02*
X184612056Y-69587944D01*
X179350000Y-74850000D02*
X179350000Y-87302417D01*
%TO.N,26*%
X169834852Y-102398092D02*
X169834852Y-103436034D01*
X184515000Y-91177944D02*
X184515000Y-89907944D01*
X185785000Y-88637944D02*
X183595000Y-88637944D01*
X183595000Y-88637944D02*
X169834852Y-102398092D01*
X184515000Y-89907944D02*
X185785000Y-88637944D01*
%TO.N,GND*%
X108315000Y-89907944D02*
X109585000Y-88637944D01*
X163253966Y-99626034D02*
X163235739Y-99626034D01*
X129099846Y-121590000D02*
X125720000Y-121590000D01*
X192135000Y-91177944D02*
X192135000Y-89907944D01*
X173085000Y-46027944D02*
X173085000Y-44757944D01*
X108315000Y-53077944D02*
X108315000Y-51807944D01*
X190865000Y-53077944D02*
X192135000Y-53077944D01*
X163235739Y-99626034D02*
X163019618Y-99842155D01*
X104310000Y-83362944D02*
X109585000Y-88637944D01*
X188785000Y-70457944D02*
X188785000Y-69495000D01*
X106885000Y-88637944D02*
X105690000Y-89832944D01*
X154035000Y-81505000D02*
X146662807Y-88877193D01*
X121249720Y-111713102D02*
X122054868Y-111713102D01*
X175865000Y-65077944D02*
X175910000Y-65122944D01*
X190865000Y-50537944D02*
X190865000Y-51807944D01*
X134985000Y-70857944D02*
X133715000Y-69587944D01*
X154035000Y-77077944D02*
X154035000Y-75807944D01*
X173085000Y-65077944D02*
X173085000Y-63807944D01*
X119685016Y-113277806D02*
X121249720Y-111713102D01*
X176342784Y-127723966D02*
X175361288Y-127723966D01*
X154035000Y-77077944D02*
X154035000Y-81505000D01*
X146662807Y-88877193D02*
X146662807Y-92846411D01*
X146415000Y-58027944D02*
X146415000Y-56757944D01*
X195000000Y-72002944D02*
X195000000Y-88312944D01*
X105690000Y-94130711D02*
X122054868Y-110495579D01*
X104425000Y-69587944D02*
X104310000Y-69702944D01*
X134985000Y-53077944D02*
X136275000Y-54367944D01*
X134985000Y-51807944D02*
X133715000Y-50537944D01*
X146662807Y-92846411D02*
X147092430Y-93276034D01*
X173085000Y-63807944D02*
X171815000Y-62537944D01*
X146415000Y-56757944D02*
X147685000Y-55487944D01*
X109585000Y-50537944D02*
X104615000Y-50537944D01*
X133895000Y-53077944D02*
X127375000Y-46557944D01*
X163235739Y-100607530D02*
X163235739Y-99626034D01*
X193757767Y-54202944D02*
X195000000Y-55445177D01*
X173250000Y-89630000D02*
X163253966Y-99626034D01*
X109585000Y-88637944D02*
X106885000Y-88637944D01*
X127375000Y-41217944D02*
X127375000Y-42943858D01*
X138270000Y-87892944D02*
X134985000Y-91177944D01*
X154345739Y-115023966D02*
X154345739Y-114042470D01*
X108315000Y-91177944D02*
X108315000Y-89907944D01*
X163019618Y-99842155D02*
X157801179Y-99842155D01*
X186730000Y-67440000D02*
X184756548Y-67440000D01*
X155820000Y-75292944D02*
X155820000Y-67110000D01*
X127612948Y-111713102D02*
X122054868Y-111713102D01*
X136182800Y-122802806D02*
X137747504Y-121238102D01*
X112360000Y-47762944D02*
X109585000Y-50537944D01*
X184756548Y-67440000D02*
X177530000Y-74666548D01*
X192135000Y-54202944D02*
X193757767Y-54202944D01*
X104615000Y-50537944D02*
X104310000Y-50842944D01*
X174375000Y-47317944D02*
X174872767Y-47317944D01*
X173085000Y-65077944D02*
X175865000Y-65077944D01*
X125720000Y-121590000D02*
X124300000Y-120170000D01*
X134985000Y-53077944D02*
X134985000Y-51807944D01*
X175361288Y-127723966D02*
X174887743Y-128197511D01*
X195000000Y-88312944D02*
X192135000Y-91177944D01*
X148977235Y-108673966D02*
X143347216Y-108673966D01*
X104310000Y-69702944D02*
X104310000Y-83362944D01*
X190865000Y-51807944D02*
X192135000Y-53077944D01*
X136772767Y-54367944D02*
X138270000Y-55865177D01*
X146415000Y-37707944D02*
X146415000Y-54217944D01*
X192135000Y-89907944D02*
X190865000Y-88637944D01*
X185232784Y-112326034D02*
X174954243Y-112326034D01*
X147685000Y-36437944D02*
X146415000Y-37707944D01*
X164624280Y-115023966D02*
X154345739Y-115023966D01*
X136323785Y-129282511D02*
X132112948Y-125071674D01*
X134985000Y-72127944D02*
X134985000Y-70857944D01*
X109585000Y-69587944D02*
X104425000Y-69587944D01*
X175910000Y-81302944D02*
X173085000Y-84127944D01*
X127375000Y-42943858D02*
X122555914Y-47762944D01*
X174872767Y-47317944D02*
X175910000Y-48355177D01*
X174887743Y-128197511D02*
X141867511Y-128197511D01*
X188785000Y-69495000D02*
X186730000Y-67440000D01*
X173085000Y-84127944D02*
X173085000Y-82857944D01*
X124300000Y-120170000D02*
X124300000Y-113958234D01*
X139367489Y-129282511D02*
X136323785Y-129282511D01*
X177530000Y-87080000D02*
X174980000Y-89630000D01*
X127375000Y-41217944D02*
X127375000Y-34985000D01*
X138552652Y-121238102D02*
X137137948Y-121238102D01*
X141160000Y-127490000D02*
X139367489Y-129282511D01*
X176342784Y-126742470D02*
X164624280Y-115023966D01*
X192135000Y-72127944D02*
X192135000Y-70857944D01*
X177440000Y-48962944D02*
X186750000Y-48962944D01*
X192135000Y-72127944D02*
X194875000Y-72127944D01*
X141867511Y-128197511D02*
X141160000Y-127490000D01*
X185160660Y-74082284D02*
X188785000Y-70457944D01*
X133715000Y-69587944D02*
X138185000Y-69587944D01*
X153030000Y-64320000D02*
X153030000Y-59720000D01*
X108315000Y-51807944D02*
X109585000Y-50537944D01*
X195000000Y-55445177D02*
X195000000Y-72002944D01*
X138270000Y-55865177D02*
X138270000Y-69672944D01*
X190795000Y-91177944D02*
X185160660Y-85543604D01*
X124300000Y-113958234D02*
X122054868Y-111713102D01*
X134985000Y-89907944D02*
X133715000Y-88637944D01*
X137747504Y-121238102D02*
X138552652Y-121238102D01*
X192135000Y-53077944D02*
X192135000Y-54202944D01*
X147092430Y-93276034D02*
X152237216Y-93276034D01*
X153030000Y-59720000D02*
X148797944Y-55487944D01*
X138270000Y-69672944D02*
X138270000Y-87892944D01*
X132112948Y-124603102D02*
X129099846Y-121590000D01*
X157801179Y-99842155D02*
X152237216Y-94278192D01*
X192135000Y-91177944D02*
X190795000Y-91177944D01*
X154035000Y-77077944D02*
X155820000Y-75292944D01*
X154345739Y-114042470D02*
X148977235Y-108673966D01*
X185160660Y-85543604D02*
X185160660Y-74082284D01*
X148797944Y-55487944D02*
X147685000Y-55487944D01*
X127375000Y-34985000D02*
X127380000Y-34980000D01*
X136275000Y-54367944D02*
X136772767Y-54367944D01*
X174954243Y-112326034D02*
X163235739Y-100607530D01*
X174505000Y-46027944D02*
X177440000Y-48962944D01*
X122555914Y-47762944D02*
X112360000Y-47762944D01*
X194875000Y-72127944D02*
X195000000Y-72002944D01*
X134985000Y-53077944D02*
X133895000Y-53077944D01*
X175910000Y-48355177D02*
X175910000Y-65122944D01*
X152237216Y-94278192D02*
X152237216Y-93276034D01*
X146415000Y-54217944D02*
X147685000Y-55487944D01*
X122054868Y-110495579D02*
X122054868Y-111713102D01*
X108315000Y-72127944D02*
X108315000Y-70857944D01*
X105690000Y-89832944D02*
X105690000Y-94130711D01*
X174980000Y-89630000D02*
X173250000Y-89630000D01*
X104310000Y-50842944D02*
X104310000Y-69702944D01*
X132112948Y-125071674D02*
X132112948Y-124603102D01*
X177530000Y-74666548D02*
X177530000Y-87080000D01*
X173085000Y-46027944D02*
X174505000Y-46027944D01*
X173085000Y-44757944D02*
X171815000Y-43487944D01*
X154035000Y-75807944D02*
X152765000Y-74537944D01*
X127375000Y-46557944D02*
X127375000Y-41217944D01*
X176342784Y-127723966D02*
X176342784Y-126742470D01*
X137137948Y-121238102D02*
X127612948Y-111713102D01*
X134985000Y-91177944D02*
X134985000Y-89907944D01*
X108315000Y-70857944D02*
X109585000Y-69587944D01*
X186750000Y-48962944D02*
X190865000Y-53077944D01*
X173085000Y-82857944D02*
X171815000Y-81587944D01*
X138185000Y-69587944D02*
X138270000Y-69672944D01*
X175910000Y-65122944D02*
X175910000Y-81302944D01*
X192135000Y-70857944D02*
X190865000Y-69587944D01*
X155820000Y-67110000D02*
X153030000Y-64320000D01*
X173085000Y-46027944D02*
X174375000Y-47317944D01*
%TO.N,3v3*%
X130380000Y-34980000D02*
X132120000Y-34980000D01*
X134057944Y-36917944D02*
X135875000Y-36917944D01*
X132120000Y-34980000D02*
X134057944Y-36917944D01*
%TO.N,0*%
X134375000Y-41217944D02*
X140190000Y-47032944D01*
X150140000Y-73736548D02*
X150140000Y-76344187D01*
X140190000Y-63786548D02*
X150140000Y-73736548D01*
X134375000Y-40785000D02*
X134375000Y-41217944D01*
X147850000Y-78634187D02*
X147850000Y-86630000D01*
X146212807Y-88267193D02*
X146212807Y-93172807D01*
X135880000Y-39280000D02*
X134375000Y-40785000D01*
X150140000Y-76344187D02*
X147850000Y-78634187D01*
X147850000Y-86630000D02*
X146212807Y-88267193D01*
X180742193Y-127702193D02*
X180742193Y-130263966D01*
X146212807Y-93172807D02*
X180742193Y-127702193D01*
X140190000Y-47032944D02*
X140190000Y-63786548D01*
%TO.N,1*%
X178542488Y-128993966D02*
X178542488Y-126138884D01*
X149690000Y-76157791D02*
X149690000Y-73922944D01*
X178542488Y-126138884D02*
X145760000Y-93356396D01*
X139740000Y-50582944D02*
X130375000Y-41217944D01*
X149690000Y-73922944D02*
X139740000Y-63972944D01*
X147400000Y-78447791D02*
X149690000Y-76157791D01*
X147400000Y-79200000D02*
X147400000Y-78447791D01*
X145760000Y-93356396D02*
X145760000Y-80840000D01*
X145760000Y-80840000D02*
X147400000Y-79200000D01*
X139740000Y-63972944D02*
X139740000Y-50582944D01*
%TO.N,6*%
X142781914Y-123948250D02*
X142952062Y-123778102D01*
X142781914Y-126612806D02*
X156635717Y-126612806D01*
X156635717Y-126612806D02*
X163144557Y-120103966D01*
X142781914Y-126612806D02*
X142781914Y-123948250D01*
%TO.N,7*%
X126284130Y-117087806D02*
X126284130Y-114423250D01*
X126284130Y-114423250D02*
X126454278Y-114253102D01*
%TO.N,15*%
X138947807Y-78825137D02*
X143235000Y-74537944D01*
X146415000Y-77077944D02*
X146415000Y-75807944D01*
X143235000Y-74537944D02*
X147685000Y-74537944D01*
X146415000Y-75807944D02*
X147685000Y-74537944D01*
X138947807Y-106133966D02*
X138947807Y-78825137D01*
%TO.N,14*%
X124640000Y-89362944D02*
X125365000Y-88637944D01*
X125365000Y-88637944D02*
X128635000Y-88637944D01*
X141147512Y-107403966D02*
X137673966Y-107403966D01*
X124640000Y-94370000D02*
X124640000Y-89362944D01*
X127365000Y-89907944D02*
X128635000Y-88637944D01*
X137673966Y-107403966D02*
X124640000Y-94370000D01*
X128670000Y-88602944D02*
X128635000Y-88637944D01*
X127365000Y-91177944D02*
X127365000Y-89907944D01*
%TO.N,12*%
X128635000Y-50537944D02*
X128670000Y-50572944D01*
X127045000Y-50537944D02*
X128635000Y-50537944D01*
X123740000Y-95906396D02*
X123740000Y-53842944D01*
X127365000Y-53077944D02*
X127365000Y-51807944D01*
X127365000Y-51807944D02*
X128635000Y-50537944D01*
X147746625Y-111213966D02*
X139047570Y-111213966D01*
X123740000Y-53842944D02*
X127045000Y-50537944D01*
X139047570Y-111213966D02*
X123740000Y-95906396D01*
%TD*%
M02*
