M48
; DRILL file {KiCad 7.0.8-7.0.8~ubuntu22.04.1} date Sun 29 Oct 2023 03:08:41 PM MSK
; FORMAT={-:-/ absolute / inch / decimal}
; #@! TF.CreationDate,2023-10-29T15:08:41+03:00
; #@! TF.GenerationSoftware,Kicad,Pcbnew,7.0.8-7.0.8~ubuntu22.04.1
; #@! TF.FileFunction,NonPlated,1,2,NPTH
FMAT,2
INCH
; #@! TA.AperFunction,NonPlated,NPTH,ComponentDrill
T1C0.0472
; #@! TA.AperFunction,NonPlated,NPTH,ComponentDrill
T2C0.0591
; #@! TA.AperFunction,NonPlated,NPTH,ComponentDrill
T3C0.0689
; #@! TA.AperFunction,NonPlated,NPTH,ComponentDrill
T4C0.0709
; #@! TA.AperFunction,NonPlated,NPTH,ComponentDrill
T5C0.1575
%
G90
G05
T1
X6.9699Y-1.2774
X7.2455Y-1.2774
T2
X4.9755Y-4.4447
X5.0709Y-4.61
T3
X4.575Y-1.925
X4.575Y-2.675
X4.575Y-3.425
X4.975Y-1.925
X4.975Y-2.675
X4.975Y-3.425
X5.325Y-1.6474
X5.325Y-2.3974
X5.325Y-3.1474
X5.725Y-1.6474
X5.725Y-2.3974
X5.725Y-3.1474
X6.075Y-1.3699
X6.075Y-2.1199
X6.075Y-2.8699
X6.475Y-1.3699
X6.475Y-2.1199
X6.475Y-2.8699
X6.5747Y-4.8317
X6.825Y-1.925
X6.825Y-2.675
X6.825Y-3.425
X6.9211Y-4.6317
X7.2243Y-4.4567
X7.225Y-1.925
X7.225Y-2.675
X7.225Y-3.425
X7.5707Y-4.2567
X7.575Y-1.925
X7.575Y-2.675
X7.575Y-3.425
X7.975Y-1.925
X7.975Y-2.675
X7.975Y-3.425
T4
X4.8663Y-4.4941
X4.9735Y-4.6799
T5
X4.775Y-1.925
X4.775Y-2.675
X4.775Y-3.425
X5.525Y-1.6474
X5.525Y-2.3974
X5.525Y-3.1474
X6.275Y-1.3699
X6.275Y-2.1199
X6.275Y-2.8699
X6.7479Y-4.7317
X7.025Y-1.925
X7.025Y-2.675
X7.025Y-3.425
X7.3975Y-4.3567
X7.775Y-1.925
X7.775Y-2.675
X7.775Y-3.425
T0
M30
