M48
; DRILL file {KiCad 7.0.8-7.0.8~ubuntu22.04.1} date Sun 29 Oct 2023 03:08:41 PM MSK
; FORMAT={-:-/ absolute / inch / decimal}
; #@! TF.CreationDate,2023-10-29T15:08:41+03:00
; #@! TF.GenerationSoftware,Kicad,Pcbnew,7.0.8-7.0.8~ubuntu22.04.1
; #@! TF.FileFunction,Plated,1,2,PTH
FMAT,2
INCH
; #@! TA.AperFunction,Plated,PTH,ComponentDrill
T1C0.0394
; #@! TA.AperFunction,Plated,PTH,ComponentDrill
T2C0.0402
; #@! TA.AperFunction,Plated,PTH,ComponentDrill
T3C0.0591
%
G90
G05
T2
X4.7405Y-4.2865
X4.8271Y-4.2365
X4.9137Y-4.1865
X5.0003Y-4.1365
X5.0869Y-4.0865
X5.0905Y-4.8927
X5.1735Y-4.0365
X5.1771Y-4.8427
X5.2601Y-3.9865
X5.2637Y-4.7927
X5.3467Y-3.9365
X5.3503Y-4.7427
X5.4333Y-3.8865
X5.4369Y-4.6927
X5.5199Y-3.8365
X5.5235Y-4.6427
X5.6065Y-3.7865
X5.6101Y-4.5927
X5.6931Y-3.7365
X5.6967Y-4.5427
X5.7797Y-3.6865
X5.7833Y-4.4927
X5.8663Y-3.6365
X5.8699Y-4.4427
X5.9529Y-3.5865
X5.9565Y-4.3927
X6.0395Y-3.5365
X6.0431Y-4.3427
X6.1261Y-3.4865
X6.1297Y-4.2927
X6.2127Y-3.4365
X6.2163Y-4.2427
X6.2993Y-3.3865
X6.3029Y-4.1927
X6.3859Y-3.3365
X6.3895Y-4.1427
X6.4761Y-4.0927
X6.5031Y-3.5575
X6.5531Y-3.6441
X6.5627Y-4.0427
X6.6031Y-3.7307
X6.6493Y-3.9927
X6.7359Y-3.9427
T3
X4.675Y-1.725
X4.675Y-2.475
X4.675Y-3.225
X4.925Y-1.825
X4.925Y-2.575
X4.925Y-3.325
X5.425Y-1.4474
X5.425Y-2.1974
X5.425Y-2.9474
X5.675Y-1.5474
X5.675Y-2.2974
X5.675Y-3.0474
X6.175Y-1.1699
X6.175Y-1.9199
X6.175Y-2.6699
X6.425Y-1.2699
X6.425Y-2.0199
X6.425Y-2.7699
X6.5613Y-4.6085
X6.8278Y-4.5701
X6.925Y-1.725
X6.925Y-2.475
X6.925Y-3.225
X7.175Y-1.825
X7.175Y-2.575
X7.175Y-3.325
X7.2109Y-4.2335
X7.4774Y-4.1951
X7.675Y-1.725
X7.675Y-2.475
X7.675Y-3.225
X7.925Y-1.825
X7.925Y-2.575
X7.925Y-3.325
T1
G00X6.8498Y-1.362
M15
G01X6.8301Y-1.362
M16
G05
G00X6.9089Y-1.1927
M15
G01X6.8892Y-1.1927
M16
G05
G00X7.0663Y-1.1927
M15
G01X7.0467Y-1.1927
M16
G05
G00X7.1844Y-1.1927
M15
G01X7.1648Y-1.1927
M16
G05
T0
M30
